<svg width="30" height="29" viewBox="0 0 30 29" fill="none" xmlns="http://www.w3.org/2000/svg">
<g clip-path="url(#clip0_577_30)">
<path d="M14.896 28.3424C22.7941 28.3424 29.1968 22.1463 29.1968 14.5029C29.1968 6.8596 22.7941 0.663452 14.896 0.663452C6.99791 0.663452 0.595215 6.8596 0.595215 14.5029C0.595215 22.1463 6.99791 28.3424 14.896 28.3424Z" fill="url(#paint0_linear_577_30)"/>
<path d="M15.0162 10.4438C16.6999 10.4438 18.0356 11.4488 18.5428 12.9433H21.9348C21.3203 9.74804 18.5962 7.58319 15.0433 7.58319C11.0086 7.58319 7.85742 10.5471 7.85742 14.5162C7.85742 18.4853 10.9299 21.4227 15.0433 21.4227C18.5166 21.4227 21.2949 19.2578 21.9099 16.0361H18.5425C18.0616 17.5309 16.727 18.5621 15.0422 18.5621C12.7175 18.5621 11.0882 16.8351 11.0882 14.5162C11.0893 12.1708 12.6923 10.4438 15.0162 10.4438Z" fill="white"/>
</g>
<defs>
<linearGradient id="paint0_linear_577_30" x1="14.896" y1="0.663452" x2="14.896" y2="28.3424" gradientUnits="userSpaceOnUse">
<stop stop-color="#0B7BC4"/>
<stop offset="1" stop-color="#5BACDE"/>
</linearGradient>
<clipPath id="clip0_577_30">
<rect width="28.6016" height="27.679" fill="white" transform="translate(0.595215 0.663452)"/>
</clipPath>
</defs>
</svg>
